# xmcd
#
# Track frame offsets:
#	150
#	16515
#	35215
#	50704
#	66363
#	82587
#	99570
#	118676
#	137741
#	157436
#	174148
#	193074
#	209815
#	225304
#	243634
#	261600
#	279058
#	294941
#	312985
#	313361
#	313736
#	314111
#	314486
#	314861
#	315236
#	315611
#	315986
#	316361
#	316736
#	317111
#	317486
#	317861
#	318236
#	318611
#	318986
#	319361
#	319811
#	320186
#	320561
#	320936
#	321311
#	321686
#	322061
#	322436
#	322811
#	323186
#	323561
#	323936
#	324311
#	324686
#	325061
#	325455
#	325830
#	326205
#	326731
#
# Disc length: 4598 seconds
#
# Revision: 1
# Processed by: cddbd v1.4PL0 Copyright (c) Steve Scherf et al.
# Submitted via: audiograbber 1.82.00
#
DISCID=6c11f437
DTITLE=Five - Five
DYEAR=1900
DGENRE=
TTITLE0=Slam Dunk Ya Funk
TTITLE1=When The Lights Go Out
TTITLE2=Everybody Get Up
TTITLE3=Go The Feelin'
TTITLE4=It's The Things You Do
TTITLE5=Human (The Five Remix)
TTITLE6=Until The Time Is Through
TTITLE7=Satisfied
TTITLE8=Partyline 555-On-Line
TTITLE9=That's What You Told Me
TTITLE10=It's All Over
TTITLE11=Don't You Want It
TTITLE12=Shake
TTITLE13=Cold Sweat
TTITLE14=Straight up Funk
TTITLE15=My Song
TTITLE16=You And I
TTITLE17=Can You Jam
TTITLE18=Blank
TTITLE19=Blank
TTITLE20=Blank
TTITLE21=Blank
TTITLE22=Blank
TTITLE23=Blank
TTITLE24=Blank
TTITLE25=Blank
TTITLE26=Blank
TTITLE27=Blank
TTITLE28=Blank
TTITLE29=Blank
TTITLE30=Blank
TTITLE31=Blank
TTITLE32=Blank
TTITLE33=Blank
TTITLE34=Blank
TTITLE35=Blank
TTITLE36=Blank
TTITLE37=Blank
TTITLE38=Blank
TTITLE39=Blank
TTITLE40=Blank
TTITLE41=Blank
TTITLE42=Blank
TTITLE43=Blank
TTITLE44=Blank
TTITLE45=Blank
TTITLE46=Blank
TTITLE47=Blank
TTITLE48=Blank
TTITLE49=Blank
TTITLE50=Blank
TTITLE51=Blank
TTITLE52=Blank
TTITLE53=Blank
TTITLE54=Get Up On The Floor- Switch
EXTD=
EXTT0=
EXTT1=
EXTT2=
EXTT3=
EXTT4=
EXTT5=
EXTT6=
EXTT7=
EXTT8=
EXTT9=
EXTT10=
EXTT11=
EXTT12=
EXTT13=
EXTT14=
EXTT15=
EXTT16=
EXTT17=
EXTT18=
EXTT19=
EXTT20=
EXTT21=
EXTT22=
EXTT23=
EXTT24=
EXTT25=
EXTT26=
EXTT27=
EXTT28=
EXTT29=
EXTT30=
EXTT31=
EXTT32=
EXTT33=
EXTT34=
EXTT35=
EXTT36=
EXTT37=
EXTT38=
EXTT39=
EXTT40=
EXTT41=
EXTT42=
EXTT43=
EXTT44=
EXTT45=
EXTT46=
EXTT47=
EXTT48=
EXTT49=
EXTT50=
EXTT51=
EXTT52=
EXTT53=
EXTT54=
PLAYORDER=
